<svg xmlns="http://www.w3.org/2000/svg" width="44.719" height="44.75" viewBox="0 0 44.719 44.75"><path id="Forma_1" data-name="Forma 1" d="M805.126,1791.69a8.4,8.4,0,0,0,2.633-.42l5.055,5.13,5.537-5.62-5.053-5.12a8.814,8.814,0,0,0-2.1-8.81,8.441,8.441,0,0,0-6.052-2.54,8.629,8.629,0,0,0-3.705.84,0.615,0.615,0,0,0-.327.44,0.627,0.627,0,0,0,.164.53l5.32,5.39a2.119,2.119,0,0,1,.609,1.49,2.075,2.075,0,0,1-3.54,1.48l-5.321-5.39a0.591,0.591,0,0,0-.516-0.17,0.617,0.617,0,0,0-.432.33,8.808,8.808,0,0,0,1.67,9.9A8.443,8.443,0,0,0,805.126,1791.69Zm27.014,9.98a8.4,8.4,0,0,0-2.636.42l-5.592-5.67-5.541,5.62,5.594,5.67a8.81,8.81,0,0,0,2.1,8.8,8.455,8.455,0,0,0,6.053,2.55,8.635,8.635,0,0,0,3.7-.85,0.615,0.615,0,0,0,.327-0.44,0.592,0.592,0,0,0-.164-0.52l-5.319-5.4a2.086,2.086,0,0,1,2.93-2.97l5.32,5.39a0.586,0.586,0,0,0,.517.17,0.594,0.594,0,0,0,.432-0.33,8.809,8.809,0,0,0-1.669-9.9A8.442,8.442,0,0,0,832.14,1801.67Zm-2.276-12.79a1.794,1.794,0,0,0,1.688.44c0.863-.44,3.292,1.99,4.067,2.56h0.017l-0.423.44a1.439,1.439,0,0,0,0,2.03,1.4,1.4,0,0,0,2.014,0l3.355-3.39a1.47,1.47,0,0,0,0-2.05,1.416,1.416,0,0,0-2.013,0l-0.558.57c-0.463-.65-1.232-1.75-1.135-2.11,0.409-1.6-2.805-5.38-2.805-5.38-7.983-8.09-13.316-7.91-15.853-7.02-1.018.35-.829,0.58,0.229,0.76,7.7,1.37,8.651,5.97,7.346,7.74a1.331,1.331,0,0,0,.23,1.52l0.275,0.27-13,13.18a2.8,2.8,0,0,1,.5.38l2.186,2.22a2.533,2.533,0,0,1,.375.5l13-13.18Zm-16.94,10.83a1.338,1.338,0,0,0-1.809-.07l-14.441,13.13a1.166,1.166,0,0,0-.064,1.71l3.934,3.98a1.123,1.123,0,0,0,1.681-.06l12.951-14.64a1.4,1.4,0,0,0-.066-1.84Z" transform="translate(-796.281 -1774.31)" fill="#fdae10" fill-rule="evenodd"/></svg>