<svg xmlns="http://www.w3.org/2000/svg" width="52.094" height="49.5" viewBox="0 0 52.094 49.5"><path id="Forma_1" data-name="Forma 1" d="M394.992,1818.17c-0.249-.15-1.027-0.35-1.241-0.52l-4.385,2.89-3.566-3.57,3.066-4.9a4.018,4.018,0,0,1-.192-0.46l-5.648-1.01,0.021-5.5,4.122-.72-2.053-2a9.53,9.53,0,0,1-6.048,2.22h-0.014a9.522,9.522,0,0,1-5.755-1.99h0l-2.089,1.99h-4.087a5.619,5.619,0,0,0-4.506,1.98c-3.359,3.89-2.8,12.26-2.532,14.82h35.52Zm-24.431-23.92a10.429,10.429,0,0,0,2.674,5.93,8.158,8.158,0,0,0,.948.88,8.551,8.551,0,0,0,1.355.89,7.492,7.492,0,0,0,7.046,0,8.551,8.551,0,0,0,1.355-.89,9.315,9.315,0,0,0,.956-0.88,10.444,10.444,0,0,0,2.666-5.9h0.079a2.908,2.908,0,0,0,2.688-3.09,3.271,3.271,0,0,0-1.119-2.51H369.37a3.269,3.269,0,0,0-1.12,2.51A2.976,2.976,0,0,0,370.561,1794.25ZM411.978,1809v-2.38l-4.941-.89a8.942,8.942,0,0,0-1.063-2.57l2.874-4.11-1.682-1.69-4.122,2.87a8.615,8.615,0,0,0-2.561-1.05l-0.876-4.95h-2.375l-0.892,4.95a9.117,9.117,0,0,0-2.56,1.07l-4.107-2.88-1.684,1.69,2.867,4.12a8.845,8.845,0,0,0-1.055,2.57l-4.935.88V1809l4.942,0.9a8.852,8.852,0,0,0,1.062,2.56l-2.881,4.11,1.684,1.69,4.121-2.87a8.915,8.915,0,0,0,2.56,1.06l0.878,4.94h2.375l0.89-4.95a8.833,8.833,0,0,0,2.56-1.07l4.109,2.88,1.682-1.68-2.867-4.13a8.875,8.875,0,0,0,1.056-2.56Zm-13.563,2.48a3.67,3.67,0,1,1,3.665-3.67A3.665,3.665,0,0,1,398.415,1811.48ZM375.3,1775.44a12.955,12.955,0,0,0-6.19,7.48l-0.2.63H367.28v3.57H391.3v-3.57h-1.6l-0.2-.63a12.943,12.943,0,0,0-6.19-7.46v7.77a2.39,2.39,0,0,1-.228.89,2.252,2.252,0,0,1-1.968,1.23h-3.594a2.243,2.243,0,0,1-2.2-1.92,1.163,1.163,0,0,1-.028-0.31v-7.68Zm2.225,8.97h3.566a1.315,1.315,0,0,0,1.169-.72,1.227,1.227,0,0,0,.171-0.63v-9.4a2.165,2.165,0,0,0-.114-0.62,1.807,1.807,0,0,0-1.654-1.15h-3.138a1.31,1.31,0,0,0-1.312,1.17c0,0.06-.029.12-0.029,0.17v9.83a1.406,1.406,0,0,0,.228.77A1.38,1.38,0,0,0,377.521,1784.41Z" transform="translate(-359.875 -1771.91)" fill="#fdae10" fill-rule="evenodd"/></svg>