<svg xmlns="http://www.w3.org/2000/svg" width="44.75" height="44.75" viewBox="0 0 44.75 44.75"><path id="Forma_1" data-name="Forma 1" d="M830.011,1936.66a1.75,1.75,0,1,1-1.748,1.75A1.754,1.754,0,0,1,830.011,1936.66Zm4.022-13.11H831.76v-1.75a1.749,1.749,0,0,0-3.5,0v1.75h-7.956v-1.75a1.749,1.749,0,0,0-3.5,0v1.75h-7.868v-1.75a1.749,1.749,0,0,0-3.5,0v1.75H803.26a7,7,0,0,0-6.994,7v27.27a7,7,0,0,0,6.994,6.99h13.376a1.75,1.75,0,0,0,0-3.5H803.26a3.5,3.5,0,0,1-3.5-3.49v-27.27a3.5,3.5,0,0,1,3.5-3.5h2.185v1.75a1.749,1.749,0,1,0,3.5,0v-1.75h7.868v1.75a1.749,1.749,0,1,0,3.5,0v-1.75h7.956v1.75a1.749,1.749,0,1,0,3.5,0v-1.75h2.273a3.5,3.5,0,0,1,3.5,3.5v9.96a1.749,1.749,0,1,0,3.5,0v-9.96A7.005,7.005,0,0,0,834.033,1923.55Zm-3.584,20.11a10.575,10.575,0,1,0,10.578,10.57A10.586,10.586,0,0,0,830.449,1943.66Zm0,17.65a7.08,7.08,0,1,1,7.081-7.08A7.085,7.085,0,0,1,830.449,1961.31Zm2.535-8.83H832.2v-1.83a1.749,1.749,0,1,0-3.5,0v3.58a1.747,1.747,0,0,0,1.749,1.75h2.535A1.75,1.75,0,0,0,832.984,1952.48Zm-10.578-15.82a1.75,1.75,0,1,1-1.749,1.75A1.753,1.753,0,0,1,822.406,1936.66Zm-7.606,7.61a1.745,1.745,0,1,1-1.749,1.75A1.747,1.747,0,0,1,814.8,1944.27Zm-7.606-7.61a1.75,1.75,0,1,1-1.749,1.75A1.753,1.753,0,0,1,807.194,1936.66Zm0,7.61a1.745,1.745,0,1,1-1.749,1.75A1.747,1.747,0,0,1,807.194,1944.27Zm0,7.6a1.75,1.75,0,1,1-1.749,1.75A1.753,1.753,0,0,1,807.194,1951.87Zm7.606,0a1.75,1.75,0,1,1-1.749,1.75A1.753,1.753,0,0,1,814.8,1951.87Zm0-15.21a1.75,1.75,0,1,1-1.749,1.75A1.753,1.753,0,0,1,814.8,1936.66Z" transform="translate(-796.281 -1920.06)" fill="#fdae10" fill-rule="evenodd"/></svg>