<svg xmlns="http://www.w3.org/2000/svg" width="42.437" height="54.34" viewBox="0 0 42.437 54.34"><path id="Forma_1" data-name="Forma 1" d="M388.879,1964.34l-2.939-52.38L383,1964.34h5.879Zm-1.844-26.79v3.67l0.459,0.35,13.425-12.77Zm-0.515-9.7,0.109,2.59,0.163,0.13,8.85-8.5Zm-0.331-8.97v1.84l5.724-5.45Zm-1.349,18.67v3.67l-0.458.35-13.424-12.77Zm2.585,11.17v4.97l0.622,0.48,18.193-17.32Zm-2.977,0v4.97l-0.615.48-18.194-17.32Zm0.978-20.87-0.219,2.44-0.165.12-8.809-8.34Zm0.263-8.97v1.84l-5.729-5.45Zm-19.552,20.88a1.425,1.425,0,1,1-1.4,1.42A1.415,1.415,0,0,1,366.137,1939.76Zm2.946,2.93a1.425,1.425,0,1,1-1.405,1.43A1.417,1.417,0,0,1,369.083,1942.69Zm2.945,2.93a1.425,1.425,0,1,1-1.405,1.43A1.417,1.417,0,0,1,372.028,1945.62Zm2.948,2.93a1.43,1.43,0,1,1-1.406,1.43A1.418,1.418,0,0,1,374.976,1948.55Zm2.943,2.93a1.43,1.43,0,1,1-1.4,1.43A1.417,1.417,0,0,1,377.919,1951.48Zm2.95,2.94a1.425,1.425,0,1,1-1.405,1.42A1.415,1.415,0,0,1,380.869,1954.42Zm-8.841-22.36a1.425,1.425,0,1,1-1.405,1.42A1.415,1.415,0,0,1,372.028,1932.06Zm2.949,2.93a1.425,1.425,0,1,1-1.4,1.43A1.417,1.417,0,0,1,374.977,1934.99Zm2.943,2.93a1.43,1.43,0,1,1-1.405,1.43A1.418,1.418,0,0,1,377.92,1937.92Zm2.949,2.93a1.425,1.425,0,1,1-1.405,1.43A1.417,1.417,0,0,1,380.869,1940.85Zm-5.835-16.99a1.425,1.425,0,1,1-1.4,1.43A1.417,1.417,0,0,1,375.034,1923.86Zm4.345,4.51a1.405,1.405,0,1,1-1.247-1.57A1.418,1.418,0,0,1,379.379,1928.37Zm1.548,1.36a1.425,1.425,0,1,1-1.4,1.42A1.415,1.415,0,0,1,380.927,1929.73Zm-2.376-12.31a1.425,1.425,0,1,1-1.4,1.42A1.409,1.409,0,0,1,378.551,1917.42Zm4.344,4.51a1.4,1.4,0,0,1-1.543,1.26,1.428,1.428,0,0,1,.3-2.84A1.432,1.432,0,0,1,382.9,1921.93Zm22.846,17.83a1.425,1.425,0,1,1-1.4,1.42A1.415,1.415,0,0,1,405.741,1939.76Zm-4.344,4.5a1.405,1.405,0,1,0,1.247-1.56A1.4,1.4,0,0,0,401.4,1944.26Zm-1.546,1.36a1.425,1.425,0,1,1-1.4,1.43A1.418,1.418,0,0,1,399.851,1945.62Zm-2.947,2.93a1.425,1.425,0,1,1-1.4,1.43A1.417,1.417,0,0,1,396.9,1948.55Zm-2.944,2.93a1.43,1.43,0,1,1-1.4,1.43A1.417,1.417,0,0,1,393.96,1951.48Zm-2.949,2.94a1.425,1.425,0,1,1-1.405,1.42A1.414,1.414,0,0,1,391.011,1954.42Zm8.84-22.36a1.425,1.425,0,1,1-1.4,1.42A1.416,1.416,0,0,1,399.851,1932.06Zm-2.948,2.93a1.425,1.425,0,1,1-1.405,1.43A1.417,1.417,0,0,1,396.9,1934.99Zm-2.945,2.93a1.425,1.425,0,1,1-1.4,1.43A1.417,1.417,0,0,1,393.958,1937.92Zm-2.947,2.93a1.425,1.425,0,1,1-1.405,1.43A1.416,1.416,0,0,1,391.011,1940.85Zm5.834-16.99a1.43,1.43,0,1,1-1.406,1.43A1.418,1.418,0,0,1,396.845,1923.86Zm-2.948,2.93a1.43,1.43,0,1,1-1.4,1.43A1.417,1.417,0,0,1,393.9,1926.79Zm-2.946,2.94a1.425,1.425,0,1,1-1.405,1.42A1.414,1.414,0,0,1,390.951,1929.73Zm2.229-12.05a1.425,1.425,0,1,1-1.405,1.42A1.416,1.416,0,0,1,393.18,1917.68Zm-2.946,2.93a1.425,1.425,0,1,1-1.4,1.43A1.418,1.418,0,0,1,390.234,1920.61Zm-4.294-10.62a1.425,1.425,0,1,1-1.4,1.43A1.417,1.417,0,0,1,385.94,1909.99Z" transform="translate(-364.719 -1910)" fill="#fdae10" fill-rule="evenodd" opacity=".93"/></svg>