<svg xmlns="http://www.w3.org/2000/svg" width="49.59" height="47.19" viewBox="0 0 49.59 47.19">
  <metadata><?xpacket begin="﻿" id="W5M0MpCehiHzreSzNTczkc9d"?>
<x:xmpmeta xmlns:x="adobe:ns:meta/" x:xmptk="Adobe XMP Core 5.6-c138 79.159824, 2016/09/14-01:09:01        ">
   <rdf:RDF xmlns:rdf="http://www.w3.org/1999/02/22-rdf-syntax-ns#">
      <rdf:Description rdf:about=""/>
   </rdf:RDF>
</x:xmpmeta>
                                                                                                    
                                                                                                    
                                                                                                    
                                                                                                    
                                                                                                    
                                                                                                    
                                                                                                    
                                                                                                    
                                                                                                    
                                                                                                    
                                                                                                    
                                                                                                    
                                                                                                    
                                                                                                    
                                                                                                    
                                                                                                    
                                                                                                    
                                                                                                    
                                                                                                    
                                                                                                    
                           
<?xpacket end="w"?></metadata>
<defs>
    <style>
      .cls-1 {
        fill: #fdae10;
        fill-rule: evenodd;
      }
    </style>
  </defs>
  <path id="Forma_1" data-name="Forma 1" class="cls-1" d="M1262.81,1793.44l-22.54-19.79a2.238,2.238,0,0,0-2.95,0l-22.54,19.79a2.334,2.334,0,0,0-.24,3.24,2.218,2.218,0,0,0,3.18.25l21.07-18.5,21.08,18.5a2.233,2.233,0,0,0,3.18-.25A2.334,2.334,0,0,0,1262.81,1793.44Zm-24.02.94a5.176,5.176,0,1,0,5.08,5.18A5.133,5.133,0,0,0,1238.79,1794.38Zm0.74-12.72a1.09,1.09,0,0,0-1.47,0l-16.99,14.95a1.161,1.161,0,0,0-.39.87v21.64a1.14,1.14,0,0,0,1.13,1.15h33.97a1.14,1.14,0,0,0,1.13-1.15v-21.64a1.161,1.161,0,0,0-.39-0.87Zm0.15,34.42a1.1,1.1,0,0,1-1.77,0c-0.89-1.16-8.7-11.51-8.7-16.52a9.587,9.587,0,1,1,19.17,0C1248.38,1804.57,1240.57,1814.92,1239.68,1816.08Z" transform="translate(-1214 -1773.09)"/>
</svg>
